solid OpenSCAD_Model
  facet normal 1 -0 0
    outer loop
      vertex 41 0 1
      vertex 41 41 0
      vertex 41 41 1
    endloop
  endfacet
  facet normal 1 0 0
    outer loop
      vertex 41 41 0
      vertex 41 0 1
      vertex 41 0 0
    endloop
  endfacet
  facet normal 0 0 1
    outer loop
      vertex 41 41 1
      vertex 31.75 13.6667 1
      vertex 41 0 1
    endloop
  endfacet
  facet normal 0 0 1
    outer loop
      vertex 41 41 1
      vertex 31.059 14.6177 1
      vertex 31.75 13.6667 1
    endloop
  endfacet
  facet normal 0 0 1
    outer loop
      vertex 41 41 1
      vertex 29.941 14.2545 1
      vertex 31.059 14.6177 1
    endloop
  endfacet
  facet normal 0 0 1
    outer loop
      vertex 20.809 11.2011 1
      vertex 29.941 13.0789 1
      vertex 29.941 14.2545 1
    endloop
  endfacet
  facet normal -0 0 1
    outer loop
      vertex 10.559 14.6177 1
      vertex 29.941 14.2545 1
      vertex 41 41 1
    endloop
  endfacet
  facet normal 0 0 1
    outer loop
      vertex 29.941 13.0789 1
      vertex 20.809 11.2011 1
      vertex 21.5 10.25 1
    endloop
  endfacet
  facet normal 0 0 1
    outer loop
      vertex 29.941 14.2545 1
      vertex 10.559 14.6177 1
      vertex 20.809 11.2011 1
    endloop
  endfacet
  facet normal -0 0 1
    outer loop
      vertex 10.559 12.7156 1
      vertex 19.691 10.8378 1
      vertex 11.25 13.6667 1
    endloop
  endfacet
  facet normal -0 -0 1
    outer loop
      vertex 11.25 13.6667 1
      vertex 20.809 11.2011 1
      vertex 10.559 14.6177 1
    endloop
  endfacet
  facet normal 0 0 1
    outer loop
      vertex 20.809 11.2011 1
      vertex 11.25 13.6667 1
      vertex 19.691 10.8378 1
    endloop
  endfacet
  facet normal -0 0 1
    outer loop
      vertex 0 41 1
      vertex 10.559 14.6177 1
      vertex 41 41 1
    endloop
  endfacet
  facet normal 0 0 1
    outer loop
      vertex 0 0 1
      vertex 9.44098 14.2545 1
      vertex 0 41 1
    endloop
  endfacet
  facet normal 0 0 1
    outer loop
      vertex 10.559 14.6177 1
      vertex 0 41 1
      vertex 9.44098 14.2545 1
    endloop
  endfacet
  facet normal -0 0 1
    outer loop
      vertex 31.059 12.7156 1
      vertex 41 0 1
      vertex 31.75 13.6667 1
    endloop
  endfacet
  facet normal 0 0 1
    outer loop
      vertex 21.5 10.25 1
      vertex 31.059 12.7156 1
      vertex 29.941 13.0789 1
    endloop
  endfacet
  facet normal 0 0 1
    outer loop
      vertex 31.059 12.7156 1
      vertex 21.5 10.25 1
      vertex 20.809 9.29894 1
    endloop
  endfacet
  facet normal 0 0 1
    outer loop
      vertex 31.059 12.7156 1
      vertex 20.809 9.29894 1
      vertex 41 0 1
    endloop
  endfacet
  facet normal 0 0 1
    outer loop
      vertex 0 0 1
      vertex 20.809 9.29894 1
      vertex 19.691 9.66221 1
    endloop
  endfacet
  facet normal 0 0 1
    outer loop
      vertex 19.691 10.8378 1
      vertex 10.559 12.7156 1
      vertex 19.691 9.66221 1
    endloop
  endfacet
  facet normal 0 0 1
    outer loop
      vertex 0 0 1
      vertex 19.691 9.66221 1
      vertex 10.559 12.7156 1
    endloop
  endfacet
  facet normal 0 0 1
    outer loop
      vertex 0 0 1
      vertex 10.559 12.7156 1
      vertex 9.44098 13.0789 1
    endloop
  endfacet
  facet normal 0 0 1
    outer loop
      vertex 20.809 9.29894 1
      vertex 0 0 1
      vertex 41 0 1
    endloop
  endfacet
  facet normal 0 0 1
    outer loop
      vertex 9.44098 14.2545 1
      vertex 0 0 1
      vertex 9.44098 13.0789 1
    endloop
  endfacet
  facet normal 0 0 -1
    outer loop
      vertex 0 0 0
      vertex 41 41 0
      vertex 41 0 0
    endloop
  endfacet
  facet normal -0 0 -1
    outer loop
      vertex 41 41 0
      vertex 0 0 0
      vertex 0 41 0
    endloop
  endfacet
  facet normal -1 0 0
    outer loop
      vertex 0 0 0
      vertex 0 41 1
      vertex 0 41 0
    endloop
  endfacet
  facet normal -1 -0 0
    outer loop
      vertex 0 41 1
      vertex 0 0 0
      vertex 0 0 1
    endloop
  endfacet
  facet normal 0 1 -0
    outer loop
      vertex 41 41 0
      vertex 0 41 1
      vertex 41 41 1
    endloop
  endfacet
  facet normal 0 1 0
    outer loop
      vertex 0 41 1
      vertex 41 41 0
      vertex 0 41 0
    endloop
  endfacet
  facet normal 0 -1 0
    outer loop
      vertex 0 0 0
      vertex 41 0 1
      vertex 0 0 1
    endloop
  endfacet
  facet normal 0 -1 -0
    outer loop
      vertex 41 0 1
      vertex 0 0 0
      vertex 41 0 0
    endloop
  endfacet
  facet normal -0.309025 -0.951054 0
    outer loop
      vertex 19.691 9.66221 1
      vertex 20.809 9.29894 10
      vertex 19.691 9.66221 10
    endloop
  endfacet
  facet normal -0.309025 -0.951054 -0
    outer loop
      vertex 20.809 9.29894 10
      vertex 19.691 9.66221 1
      vertex 20.809 9.29894 1
    endloop
  endfacet
  facet normal -0.309048 0.951047 0
    outer loop
      vertex 20.809 11.2011 1
      vertex 19.691 10.8378 10
      vertex 20.809 11.2011 10
    endloop
  endfacet
  facet normal -0.309048 0.951047 0
    outer loop
      vertex 19.691 10.8378 10
      vertex 20.809 11.2011 1
      vertex 19.691 10.8378 1
    endloop
  endfacet
  facet normal 0.809023 0.587777 0
    outer loop
      vertex 21.5 10.25 10
      vertex 20.809 11.2011 1
      vertex 20.809 11.2011 10
    endloop
  endfacet
  facet normal 0.809023 0.587777 0
    outer loop
      vertex 20.809 11.2011 1
      vertex 21.5 10.25 10
      vertex 21.5 10.25 1
    endloop
  endfacet
  facet normal -1 0 0
    outer loop
      vertex 19.691 9.66221 1
      vertex 19.691 10.8378 10
      vertex 19.691 10.8378 1
    endloop
  endfacet
  facet normal -1 -0 0
    outer loop
      vertex 19.691 10.8378 10
      vertex 19.691 9.66221 1
      vertex 19.691 9.66221 10
    endloop
  endfacet
  facet normal 0 0 1
    outer loop
      vertex 20.809 11.2011 10
      vertex 20.809 9.29894 10
      vertex 21.5 10.25 10
    endloop
  endfacet
  facet normal -0 0 1
    outer loop
      vertex 19.691 10.8378 10
      vertex 20.809 9.29894 10
      vertex 20.809 11.2011 10
    endloop
  endfacet
  facet normal 0 0 1
    outer loop
      vertex 20.809 9.29894 10
      vertex 19.691 10.8378 10
      vertex 19.691 9.66221 10
    endloop
  endfacet
  facet normal 0.809011 -0.587793 0
    outer loop
      vertex 20.809 9.29894 10
      vertex 21.5 10.25 1
      vertex 21.5 10.25 10
    endloop
  endfacet
  facet normal 0.809011 -0.587793 0
    outer loop
      vertex 21.5 10.25 1
      vertex 20.809 9.29894 10
      vertex 20.809 9.29894 1
    endloop
  endfacet
  facet normal -0.309043 -0.951048 0
    outer loop
      vertex 9.44098 13.0789 1
      vertex 10.559 12.7156 10
      vertex 9.44098 13.0789 10
    endloop
  endfacet
  facet normal -0.309043 -0.951048 -0
    outer loop
      vertex 10.559 12.7156 10
      vertex 9.44098 13.0789 1
      vertex 10.559 12.7156 1
    endloop
  endfacet
  facet normal -0.308966 0.951073 0
    outer loop
      vertex 10.559 14.6177 1
      vertex 9.44098 14.2545 10
      vertex 10.559 14.6177 10
    endloop
  endfacet
  facet normal -0.308966 0.951073 0
    outer loop
      vertex 9.44098 14.2545 10
      vertex 10.559 14.6177 1
      vertex 9.44098 14.2545 1
    endloop
  endfacet
  facet normal 0.808994 0.587818 0
    outer loop
      vertex 11.25 13.6667 10
      vertex 10.559 14.6177 1
      vertex 10.559 14.6177 10
    endloop
  endfacet
  facet normal 0.808994 0.587818 0
    outer loop
      vertex 10.559 14.6177 1
      vertex 11.25 13.6667 10
      vertex 11.25 13.6667 1
    endloop
  endfacet
  facet normal -1 0 0
    outer loop
      vertex 9.44098 13.0789 1
      vertex 9.44098 14.2545 10
      vertex 9.44098 14.2545 1
    endloop
  endfacet
  facet normal -1 -0 0
    outer loop
      vertex 9.44098 14.2545 10
      vertex 9.44098 13.0789 1
      vertex 9.44098 13.0789 10
    endloop
  endfacet
  facet normal 0 0 1
    outer loop
      vertex 10.559 14.6177 10
      vertex 10.559 12.7156 10
      vertex 11.25 13.6667 10
    endloop
  endfacet
  facet normal -0 0 1
    outer loop
      vertex 9.44098 14.2545 10
      vertex 10.559 12.7156 10
      vertex 10.559 14.6177 10
    endloop
  endfacet
  facet normal 0 0 1
    outer loop
      vertex 10.559 12.7156 10
      vertex 9.44098 14.2545 10
      vertex 9.44098 13.0789 10
    endloop
  endfacet
  facet normal 0.809023 -0.587777 0
    outer loop
      vertex 10.559 12.7156 10
      vertex 11.25 13.6667 1
      vertex 11.25 13.6667 10
    endloop
  endfacet
  facet normal 0.809023 -0.587777 0
    outer loop
      vertex 11.25 13.6667 1
      vertex 10.559 12.7156 10
      vertex 10.559 12.7156 1
    endloop
  endfacet
  facet normal -0.309048 -0.951047 0
    outer loop
      vertex 29.941 13.0789 1
      vertex 31.059 12.7156 10
      vertex 29.941 13.0789 10
    endloop
  endfacet
  facet normal -0.309048 -0.951047 -0
    outer loop
      vertex 31.059 12.7156 10
      vertex 29.941 13.0789 1
      vertex 31.059 12.7156 1
    endloop
  endfacet
  facet normal -0.308971 0.951072 0
    outer loop
      vertex 31.059 14.6177 1
      vertex 29.941 14.2545 10
      vertex 31.059 14.6177 10
    endloop
  endfacet
  facet normal -0.308971 0.951072 0
    outer loop
      vertex 29.941 14.2545 10
      vertex 31.059 14.6177 1
      vertex 29.941 14.2545 1
    endloop
  endfacet
  facet normal 0.808994 0.587818 0
    outer loop
      vertex 31.75 13.6667 10
      vertex 31.059 14.6177 1
      vertex 31.059 14.6177 10
    endloop
  endfacet
  facet normal 0.808994 0.587818 0
    outer loop
      vertex 31.059 14.6177 1
      vertex 31.75 13.6667 10
      vertex 31.75 13.6667 1
    endloop
  endfacet
  facet normal -1 0 0
    outer loop
      vertex 29.941 13.0789 1
      vertex 29.941 14.2545 10
      vertex 29.941 14.2545 1
    endloop
  endfacet
  facet normal -1 -0 0
    outer loop
      vertex 29.941 14.2545 10
      vertex 29.941 13.0789 1
      vertex 29.941 13.0789 10
    endloop
  endfacet
  facet normal 0 0 1
    outer loop
      vertex 31.059 14.6177 10
      vertex 31.059 12.7156 10
      vertex 31.75 13.6667 10
    endloop
  endfacet
  facet normal -0 0 1
    outer loop
      vertex 29.941 14.2545 10
      vertex 31.059 12.7156 10
      vertex 31.059 14.6177 10
    endloop
  endfacet
  facet normal 0 0 1
    outer loop
      vertex 31.059 12.7156 10
      vertex 29.941 14.2545 10
      vertex 29.941 13.0789 10
    endloop
  endfacet
  facet normal 0.809023 -0.587777 0
    outer loop
      vertex 31.059 12.7156 10
      vertex 31.75 13.6667 1
      vertex 31.75 13.6667 10
    endloop
  endfacet
  facet normal 0.809023 -0.587777 0
    outer loop
      vertex 31.75 13.6667 1
      vertex 31.059 12.7156 10
      vertex 31.059 12.7156 1
    endloop
  endfacet
endsolid OpenSCAD_Model
